<?xml version="1.0" standalone="no"?>
<!DOCTYPE svg PUBLIC "-//W3C//DTD SVG 20010904//EN"
 "http://www.w3.org/TR/2001/REC-SVG-20010904/DTD/svg10.dtd">
<svg version="1.0" xmlns="http://www.w3.org/2000/svg"
 width="300.000000pt" height="300.000000pt" viewBox="0 0 300.000000 300.000000"
 preserveAspectRatio="xMidYMid meet" id="writeup">
<metadata>
Created by potrace 1.10, written by Peter Selinger 2001-2011
</metadata>
<g transform="translate(0.000000,300.000000) scale(0.100000,-0.100000)" stroke="none">
<path d="M651 2607 c-6 -8 -8 -17 -4 -20 3 -4 -2 -9 -11 -13 -9 -3 -13 -10
-10 -15 3 -5 10 -6 16 -3 7 4 8 2 4 -4 -10 -16 30 -176 59 -241 14 -29 41 -71
60 -92 34 -38 46 -79 24 -79 -5 0 -7 -4 -4 -10 13 -21 -15 -8 -66 30 -52 39
-109 110 -109 137 0 7 -4 13 -10 13 -5 0 -10 7 -10 15 0 20 -90 116 -101 109
-9 -5 -12 5 -12 39 0 20 -10 14 -13 -8 -3 -19 60 -121 73 -118 6 1 17 -5 25
-15 12 -15 11 -16 -4 -3 -10 7 -18 9 -18 3 0 -12 25 -34 32 -27 3 3 11 -3 19
-12 13 -16 12 -17 -3 -4 -28 21 -21 -1 13 -42 17 -21 30 -40 28 -42 -7 -7 -54
40 -65 66 -7 14 -35 44 -62 67 -44 37 -50 39 -45 20 6 -25 77 -98 96 -98 8 0
7 -3 -2 -9 -11 -7 -7 -12 15 -25 21 -11 24 -15 11 -16 -10 0 -31 12 -46 28
-15 15 -34 26 -42 24 -8 -1 -34 11 -58 28 -67 49 -59 29 16 -39 37 -33 62 -61
54 -61 -15 0 -143 121 -136 128 3 3 -5 16 -17 29 -12 13 -18 23 -13 23 5 0 0
7 -11 16 -10 8 -12 12 -4 8 13 -7 13 -6 0 15 -21 31 -34 31 -38 -1 -2 -17 2
-28 8 -28 7 0 10 -7 6 -15 -3 -8 -1 -15 4 -15 6 0 10 -9 10 -21 0 -14 5 -19
14 -16 8 3 34 -16 62 -45 27 -27 83 -72 124 -99 76 -49 83 -57 36 -39 -17 6
-26 6 -26 0 0 -6 4 -10 8 -10 5 0 17 -6 27 -14 18 -13 18 -14 -8 -9 -15 3 -27
9 -27 14 0 5 -8 9 -17 10 -11 0 -13 3 -5 6 6 2 12 8 12 12 0 11 -86 71 -93 65
-3 -3 -14 -1 -24 6 -15 9 -15 10 7 4 22 -6 23 -5 11 10 -7 9 -20 16 -27 16 -8
0 -13 3 -12 8 2 4 -8 21 -21 37 -22 29 -23 29 -16 5 4 -14 12 -27 16 -28 5 -2
7 -7 4 -12 -5 -9 22 -67 36 -75 5 -4 9 -14 9 -25 0 -10 7 -20 14 -23 11 -4 13
-1 9 10 -5 12 3 9 28 -9 19 -14 54 -33 79 -41 24 -8 46 -20 48 -27 3 -9 -1
-11 -12 -7 -14 5 -16 3 -11 -12 5 -17 2 -19 -22 -16 l-28 4 30 -14 c17 -7 31
-18 31 -24 1 -6 2 -15 3 -20 0 -5 8 -17 17 -25 14 -15 14 -16 -3 -17 -10 -1
-24 -1 -31 0 -10 2 -10 -2 0 -18 19 -30 6 -34 -61 -17 -60 15 -161 62 -113 52
19 -4 21 -2 11 10 -6 8 -21 14 -34 14 -28 0 -85 20 -85 29 0 4 -6 8 -14 8 -9
0 -12 -7 -8 -16 8 -23 135 -151 150 -151 7 0 15 -6 18 -14 3 -8 13 -12 22 -9
9 2 43 0 75 -5 32 -5 55 -6 50 -2 -13 11 -94 34 -115 33 -10 -1 -16 2 -13 7 3
4 24 6 48 4 l42 -4 -43 14 c-23 8 -52 12 -65 10 -20 -4 -20 -4 -2 4 18 8 17 9
-7 15 -30 8 -101 47 -95 53 2 2 33 -9 68 -25 35 -16 91 -35 124 -42 78 -17
150 -71 134 -100 -5 -11 -7 -29 -4 -39 7 -24 62 -66 90 -72 11 -2 27 -18 36
-36 8 -19 30 -41 47 -49 22 -11 32 -23 32 -39 0 -25 43 -64 71 -64 13 0 19 -7
19 -23 0 -33 19 -47 62 -47 25 0 38 -5 38 -13 0 -8 9 -22 19 -31 15 -14 24
-15 40 -7 27 15 51 14 51 -2 0 -18 32 -47 52 -47 9 0 22 7 29 17 13 15 12 15
-7 3 -12 -7 -28 -11 -36 -7 -18 6 -31 65 -22 93 5 17 4 17 -13 -2 -23 -26 -56
-44 -79 -44 -14 0 -16 7 -11 39 5 39 4 39 -20 30 -36 -13 -93 -11 -93 4 1 19
32 53 70 76 43 26 38 26 -32 2 -88 -30 -137 -10 -107 46 17 32 58 60 67 47 9
-13 66 7 69 24 2 8 -11 12 -36 12 -28 0 -49 7 -68 24 -15 13 -26 26 -23 29 3
3 32 7 64 8 58 4 59 3 69 -26 6 -16 16 -34 23 -38 8 -4 14 -17 14 -27 0 -11
16 -32 38 -47 22 -17 36 -35 34 -45 -4 -18 33 -48 60 -48 15 0 18 -7 14 -45
-2 -32 0 -45 10 -45 7 0 19 -8 26 -18 25 -36 41 -36 22 -1 -33 64 -13 153 37
166 14 4 19 14 19 37 0 39 24 75 49 73 16 -1 18 -7 13 -39 -3 -25 1 -46 12
-63 15 -23 15 -25 -1 -22 -27 4 -43 17 -54 41 -7 16 -8 13 -6 -19 3 -26 -2
-49 -13 -65 -32 -47 -35 -142 -5 -154 9 -3 12 11 11 54 -1 45 4 65 20 87 29
39 51 41 51 6 1 -15 5 -50 9 -77 8 -42 13 -50 32 -51 13 -1 32 -11 43 -22 l20
-20 31 31 c29 29 32 29 38 11 6 -15 9 -7 14 30 4 28 11 58 17 68 6 12 6 24 -2
38 -13 26 -6 34 19 20 33 -17 55 -77 49 -134 l-4 -51 18 23 c29 36 26 111 -7
146 -22 24 -24 29 -11 42 21 22 52 8 71 -31 21 -45 20 -74 -3 -118 -19 -34
-19 -36 -1 -31 10 3 20 14 23 24 3 11 11 18 18 17 15 -3 18 24 7 65 -6 25 -4
27 21 27 32 0 46 13 56 52 4 16 16 29 29 32 13 3 31 22 42 43 10 21 21 40 24
43 3 3 12 18 20 35 14 27 18 29 70 26 72 -4 78 -9 45 -37 -28 -24 -48 -29 -92
-25 -27 2 -22 -24 5 -32 9 -3 26 -8 37 -13 18 -7 18 -6 6 9 -10 13 -11 17 -1
17 17 0 90 -77 90 -95 0 -7 -15 -18 -33 -24 -27 -9 -44 -8 -93 8 -32 11 -50
15 -39 8 11 -7 36 -30 56 -51 36 -38 37 -38 41 -15 2 17 10 25 28 27 34 5 60
30 60 58 0 15 9 27 28 36 15 7 35 30 45 51 10 20 26 37 34 37 27 0 94 43 89
57 -3 7 1 13 9 13 12 0 11 5 -3 30 l-17 30 40 32 c27 23 61 38 110 50 40 9 97
28 129 42 31 14 62 23 69 20 7 -2 24 7 37 21 19 20 21 28 11 38 -9 9 -14 9
-19 0 -11 -18 -58 -33 -102 -33 -23 0 -45 -7 -56 -17 -16 -17 -16 -18 7 -24
19 -5 10 -10 -49 -29 -49 -15 -77 -19 -84 -12 -6 6 -2 15 14 27 21 15 21 16 3
15 -54 -5 -56 -3 -34 39 12 24 30 41 45 45 35 9 121 50 172 81 23 14 42 22 42
17 0 -5 -11 -15 -25 -22 -18 -10 -22 -16 -13 -22 9 -5 5 -8 -11 -8 -13 0 -52
-14 -87 -31 -63 -31 -83 -46 -44 -34 35 11 22 -4 -22 -25 l-43 -21 50 6 c35 4
56 13 72 31 12 13 31 24 41 24 22 0 62 32 62 49 0 6 5 11 10 11 6 0 10 5 10
11 0 6 12 26 26 45 15 19 23 34 19 34 -4 0 -2 7 5 15 20 24 6 28 -21 7 -13
-11 -40 -24 -59 -31 -19 -6 -48 -23 -65 -37 l-30 -26 53 27 c30 14 56 24 59
22 8 -8 -82 -65 -138 -88 -78 -30 -91 -32 -84 -9 5 14 2 17 -13 13 -13 -3 -19
1 -19 12 0 9 6 14 14 11 7 -3 13 -1 13 5 0 6 4 8 8 5 5 -3 32 6 61 20 29 13
58 21 64 17 6 -3 7 -1 3 6 -5 7 3 20 19 33 26 21 64 89 65 116 0 9 -7 8 -24
-5 -16 -12 -20 -20 -12 -25 7 -5 5 -8 -6 -8 -9 0 -23 -8 -30 -18 -7 -10 -37
-33 -65 -51 -56 -35 -66 -47 -33 -38 11 3 20 1 20 -3 0 -5 -20 -8 -45 -7 -25
1 -45 3 -45 4 0 0 29 19 64 41 35 23 87 63 116 91 29 28 56 48 61 46 12 -8 39
24 33 39 -3 8 -1 17 5 21 15 8 14 62 -1 71 -6 4 -9 3 -5 -2 7 -12 -59 -103
-81 -111 -9 -3 -38 -23 -63 -44 -30 -24 -50 -34 -59 -29 -8 5 -20 -1 -35 -17
-12 -14 -28 -24 -36 -21 -9 4 -5 9 14 17 15 6 27 13 27 16 0 11 -44 -6 -65
-25 -11 -9 -27 -21 -35 -26 -15 -8 -12 -4 71 102 25 33 58 82 73 109 15 28 21
42 14 31 -7 -10 -21 -28 -31 -40 -17 -20 -17 -20 -1 14 l16 35 -41 -40 c-23
-22 -54 -65 -68 -95 -36 -77 -58 -105 -115 -151 -45 -35 -88 -53 -73 -30 3 5
1 12 -5 16 -18 11 -10 31 31 76 46 49 84 125 100 201 12 53 5 103 -12 92 -6
-3 -8 -8 -5 -11 3 -3 -4 -23 -14 -44 -11 -21 -20 -55 -21 -76 0 -28 -2 -33 -8
-19 -7 18 -8 18 -14 2 -10 -26 -8 -48 3 -41 18 11 10 -29 -11 -55 -18 -23 -20
-23 -18 -5 1 11 0 31 -1 45 -1 23 -2 23 -10 5 -5 -11 -9 -32 -9 -47 -1 -15
-11 -34 -24 -45 -12 -10 -31 -32 -42 -49 -20 -31 -72 -79 -136 -127 -44 -33
-59 -35 -33 -4 16 19 15 18 -10 -3 -32 -28 -59 -76 -53 -93 2 -7 9 -2 16 11 6
12 16 22 21 22 16 0 12 -15 -11 -39 -21 -22 -23 -62 -5 -102 8 -18 -29 -77
-59 -93 -11 -6 -33 -21 -48 -33 -32 -26 -88 -31 -106 -9 -6 7 -16 40 -22 72
-6 32 -20 77 -30 99 l-20 40 25 -30 c14 -16 30 -53 36 -81 7 -31 20 -60 35
-74 30 -28 32 -19 6 18 -10 15 -21 46 -25 70 -7 56 -27 87 -88 140 -53 46 -48
58 8 16 19 -15 34 -22 34 -16 0 6 -17 23 -37 38 -28 19 -31 24 -14 19 16 -5
21 -4 17 4 -5 7 -1 9 8 5 9 -3 16 -2 16 4 0 12 -33 21 -80 23 -19 0 -44 5 -55
10 -15 6 -8 8 25 5 l45 -5 -50 14 -50 15 53 -5 c33 -2 52 0 52 7 0 20 -188 3
-247 -22 -29 -13 -53 -27 -53 -33 0 -8 3 -8 11 0 8 8 23 5 55 -10 23 -12 43
-25 44 -29 0 -3 -36 -6 -79 -5 l-80 2 21 23 c12 12 17 22 12 22 -19 0 -37 -19
-40 -41 -1 -13 -5 -35 -8 -48 l-5 -24 24 23 c20 18 30 21 61 15 20 -3 50 -19
66 -35 36 -37 37 -78 1 -121 -24 -28 -25 -31 -6 -21 34 18 41 14 13 -8 -14
-11 -32 -20 -41 -20 -9 0 -19 -7 -23 -15 -5 -13 -2 -14 17 -4 l22 12 -20 -24
c-30 -36 -36 -39 -91 -39 -46 0 -56 4 -98 41 -25 22 -46 37 -46 32 0 -4 -10 6
-21 24 -18 29 -19 36 -8 67 11 30 10 39 -9 75 -27 52 -28 63 -1 32 25 -30 30
-25 15 18 -6 19 -27 45 -46 60 l-35 25 25 -28 c29 -33 16 -28 -55 24 -27 20
-67 57 -88 81 -20 24 -48 57 -62 72 -14 15 -25 38 -25 50 0 33 -11 67 -22 67
-8 0 -5 -18 10 -59 3 -9 0 -12 -9 -9 -7 2 -17 24 -22 49 -4 24 -12 53 -17 64
-35 78 -50 116 -51 127 0 7 -4 4 -9 -7 -7 -16 -9 -12 -9 18 -1 23 3 36 9 32 6
-4 10 10 10 34 0 42 -9 51 -29 28z m1780 -264 c-18 -33 -60 -78 -61 -66 0 12
57 83 66 83 3 0 0 -8 -5 -17z m148 -69 c-51 -53 -106 -91 -115 -81 -3 3 10 14
28 25 18 12 55 43 82 71 28 28 52 48 55 46 3 -3 -20 -30 -50 -61z m-2049 -54
c19 -16 43 -29 53 -30 10 0 39 -11 65 -24 53 -28 119 -82 88 -71 -18 5 -19 4
-4 -12 19 -23 28 -57 18 -73 -5 -8 -25 -1 -70 27 -62 38 -84 65 -94 114 -4 17
-16 31 -35 39 -30 12 -82 60 -65 60 5 0 25 -13 44 -30z m1922 -11 c-19 -17
-36 -28 -39 -25 -7 6 48 55 62 55 6 0 -5 -13 -23 -30z m-57 -41 c-20 -73 -40
-100 -97 -134 -33 -19 -63 -34 -69 -34 -15 0 -10 44 8 70 16 22 16 23 -2 17
-33 -13 6 24 69 65 69 44 101 50 91 16z m-1479 -94 c83 -59 134 -103 82 -71
-38 24 -45 21 -19 -6 25 -28 19 -57 -11 -57 -48 0 -105 27 -150 70 -81 78 -55
105 37 38 90 -65 116 -81 121 -75 3 3 -30 32 -74 66 -131 99 -118 130 14 35z
m1244 46 c0 -5 -36 -39 -80 -76 -81 -67 -103 -100 -33 -50 116 83 137 96 149
96 11 0 10 -8 -6 -39 -21 -41 -56 -72 -112 -96 -57 -25 -11 -16 54 10 78 32
82 31 63 -4 -28 -55 -84 -85 -175 -93 -32 -3 -35 -1 -32 22 2 14 7 29 12 34 4
4 -1 17 -13 29 l-20 20 44 39 44 38 -50 -27 c-64 -33 -50 -20 49 51 76 54 106
67 106 46z m-650 -79 c24 -11 50 -17 59 -14 14 4 14 3 1 -5 -23 -15 -177 -9
-192 7 -11 11 -10 13 3 9 8 -3 26 0 40 8 32 18 39 17 89 -5z m-853 -27 c76
-30 88 -39 98 -73 7 -24 7 -24 -44 -18 -28 3 -61 13 -72 21 -32 22 -73 96 -54
96 3 0 35 -12 72 -26z m1724 -17 c-29 -47 -63 -69 -115 -74 -41 -5 -46 -3 -46
14 0 11 8 27 18 35 22 20 144 68 155 61 4 -2 -1 -19 -12 -36z m-849 2 c44 -20
84 -98 58 -114 -5 -3 -10 -1 -10 6 0 7 -3 10 -6 6 -3 -3 -1 -14 5 -24 8 -14
10 -14 11 -3 0 13 2 13 11 0 9 -13 10 -13 6 1 -3 9 -2 21 2 28 12 19 41 -50
41 -98 0 -48 39 -132 72 -155 32 -23 45 -20 17 3 l-24 20 35 -3 c19 -2 49 -10
67 -19 18 -10 43 -17 58 -17 31 0 32 -14 3 -34 -21 -15 -88 -23 -88 -10 0 3 9
13 21 23 20 16 20 17 -18 34 l-38 18 25 -20 25 -21 -51 0 c-42 0 -55 4 -76 28
-34 35 -48 72 -48 130 0 26 -5 54 -10 62 -7 11 -10 1 -10 -36 0 -29 -6 -58
-15 -70 -13 -17 -14 -15 -9 26 4 29 1 57 -9 80 l-14 35 5 -47 c2 -26 1 -59 -3
-75 -7 -26 -9 -25 -25 28 -9 31 -20 69 -24 85 l-7 29 21 -25 c15 -18 19 -19
12 -5 -10 20 -62 73 -62 63 0 -3 7 -22 15 -41 19 -47 19 -55 -6 -96 -24 -40
-36 -36 -14 5 16 31 19 53 9 78 -11 28 -22 17 -22 -23 -1 -40 -21 -90 -51
-125 -13 -16 -13 -18 -1 -11 8 4 23 15 33 23 9 8 17 11 17 5 0 -30 -187 -124
-242 -121 -31 1 -36 4 -26 15 9 11 6 12 -17 3 -39 -15 -43 -5 -6 13 17 8 40
13 51 10 19 -5 20 -6 3 -19 -16 -12 -16 -13 -2 -14 17 0 131 79 144 99 3 6 10
9 14 6 14 -8 49 39 50 65 0 14 1 43 2 66 1 25 -5 51 -16 68 -22 33 -16 40 21
25 16 -7 35 -13 43 -15 7 -1 30 -18 49 -36 l36 -33 -19 30 c-17 28 -17 29 -1
15 21 -17 46 -22 46 -9 0 15 -50 42 -113 60 -51 15 -56 18 -29 18 18 1 49 -6
70 -14 l37 -15 -30 25 c-32 27 -30 31 7 14z m-691 -34 c34 -13 77 -27 96 -31
30 -6 53 -32 53 -60 0 -8 -65 -4 -105 7 -41 11 -115 73 -115 96 0 17 1 17 71
-12z m209 -44 c14 -28 12 -35 -6 -21 -8 8 -14 9 -12 3 2 -6 -1 -12 -7 -12 -5
-1 -11 10 -13 24 -4 31 22 35 38 6z m920 0 c0 -24 -26 -47 -33 -29 -3 8 -9 4
-16 -12 -11 -24 -11 -24 -5 5 3 16 10 36 16 42 16 19 38 16 38 -6z m-1168 -26
c14 -6 15 -11 7 -27 -6 -11 -8 -26 -5 -34 3 -8 0 -14 -7 -14 -7 -1 -5 -6 6
-14 9 -7 17 -22 17 -32 0 -10 7 -28 15 -38 8 -11 15 -28 15 -38 0 -10 5 -18
12 -18 6 0 3 -7 -8 -16 -14 -11 -15 -14 -3 -11 25 8 42 -8 35 -31 -10 -29 -39
-36 -76 -17 -35 18 -37 33 -11 66 l19 24 -47 -3 c-41 -3 -51 1 -86 31 l-40 35
48 21 c27 12 58 21 68 21 11 0 18 4 15 9 -3 4 -17 6 -30 4 -35 -7 -88 13 -130
49 -28 24 -34 34 -24 40 14 10 182 4 210 -7z m1576 6 c10 -6 4 -16 -24 -40
-47 -42 -76 -52 -136 -50 -44 2 -47 4 -44 26 3 13 0 23 -5 23 -19 0 -8 30 14
34 12 3 31 7 42 9 37 8 140 7 153 -2z m-1409 -50 c10 -7 8 -12 -10 -25 -29
-20 -89 -21 -115 -1 -16 13 -17 16 -4 25 18 12 110 13 129 1z m1169 1 c10 -7
8 -12 -7 -26 -33 -30 -146 -9 -126 23 7 13 114 15 133 3z m-1106 -40 c19 -30
19 -32 2 -26 -14 5 -11 -2 10 -24 32 -34 30 -48 -4 -37 -29 9 -58 54 -41 65 9
5 10 10 2 14 -14 9 -15 49 0 44 5 -2 19 -18 31 -36z m948 13 c0 -15 -6 -25
-14 -25 -8 0 -18 -5 -22 -11 -4 -8 0 -9 15 -4 11 3 21 2 21 -3 0 -20 -42 -62
-62 -62 -20 0 -20 1 -4 19 9 10 16 22 14 27 -3 10 38 84 47 84 3 0 5 -11 5
-25z m-1010 -35 c0 -5 -10 -10 -22 -10 -22 -1 -21 -2 5 -16 32 -18 27 -34 -11
-34 -25 0 -92 33 -92 45 0 11 45 24 83 24 20 1 37 -3 37 -9z m550 -26 c0 -30
-8 -44 -55 -89 -60 -58 -72 -78 -25 -45 l30 21 0 -33 c0 -18 5 -40 10 -48 7
-12 11 -8 16 17 7 38 27 58 49 49 18 -6 19 -2 4 25 -9 18 -13 19 -27 6 -34
-28 -45 -31 -33 -9 6 12 16 24 22 27 6 4 14 17 19 29 8 21 8 21 15 1 4 -11 13
-32 21 -47 8 -14 14 -46 14 -70 l-1 -43 -14 33 c-13 30 -30 47 -19 18 3 -7 -9
-41 -27 -76 l-31 -62 -29 51 c-16 28 -29 58 -29 68 -1 15 -4 15 -20 -6 l-20
-23 0 34 c0 42 35 98 73 116 18 9 30 25 37 52 13 50 20 51 20 4z m597 22 c12
-12 -33 -47 -70 -56 -41 -9 -57 9 -31 35 9 8 11 15 5 15 -6 0 -11 5 -11 11 0
12 95 8 107 -5z m154 -2 c35 -12 49 -21 47 -32 -5 -27 -67 -62 -109 -62 l-38
0 15 -27 c13 -26 13 -29 -11 -50 -15 -13 -33 -23 -42 -23 -20 0 -53 28 -53 45
0 15 28 28 41 19 5 -3 9 0 9 5 0 6 -4 11 -10 11 -5 0 -7 7 -4 15 4 8 11 12 18
8 6 -4 4 1 -4 11 -12 16 -12 20 1 30 9 6 19 23 23 39 5 22 12 27 37 27 17 0
53 -7 80 -16z m-612 -209 c0 -26 -2 -27 -9 -10 -6 13 -9 15 -9 5 -2 -26 -17
-41 -46 -46 -27 -5 -28 -4 -13 13 25 29 29 56 14 106 -13 42 -12 49 1 63 14
14 18 9 39 -43 13 -32 24 -71 23 -88z m-490 109 c1 -2 -6 -13 -17 -25 -18 -19
-25 -20 -53 -10 -28 10 -58 36 -59 52 0 5 120 -11 129 -17z m760 -1 c-18 -21
-77 -46 -91 -37 -7 4 -6 9 3 15 10 6 6 9 -13 9 -44 0 -32 18 15 23 99 9 101 9
86 -10z m-769 -75 l21 -23 -31 -3 c-30 -3 -70 19 -70 40 0 18 60 7 80 -14z
m110 -23 c0 -31 -45 -73 -88 -81 -18 -4 -35 -4 -38 -1 -13 12 20 49 62 68 24
12 47 25 50 30 9 15 14 10 14 -16z m498 -15 c17 0 62 -41 62 -57 0 -12 -7 -14
-37 -8 -47 8 -107 63 -97 88 6 15 8 15 34 -3 15 -11 32 -20 38 -20z m-294
-119 c9 -8 18 -12 19 -10 2 2 14 19 26 37 28 40 41 41 41 1 0 -38 -23 -89 -54
-118 l-23 -22 -32 47 c-20 32 -31 60 -31 84 0 48 11 57 25 23 7 -16 19 -34 29
-42z"/>
<path d="M2524 2538 c3 -10 1 -18 -5 -18 -6 0 -7 -4 -4 -10 3 -5 2 -10 -3 -10
-5 0 -9 -6 -9 -14 0 -12 4 -12 24 1 27 18 28 23 7 49 -13 16 -15 16 -10 2z"/>
<path d="M430 2498 c0 -56 10 -62 28 -16 8 23 9 35 1 43 -7 7 -8 4 -4 -10 5
-14 2 -13 -9 5 -15 25 -15 24 -16 -22z"/>
<path d="M2341 2504 c-15 -33 -14 -39 4 -24 21 17 19 -3 -4 -31 -22 -29 -40
-112 -20 -91 18 17 34 15 19 -3 -7 -8 -19 -15 -26 -15 -8 0 -14 -4 -14 -8 0
-5 -16 -35 -35 -68 l-36 -59 41 43 c22 23 39 47 37 53 -1 6 8 18 21 26 54 37
12 -37 -72 -126 l-51 -54 43 32 c91 71 119 128 119 249 1 97 -6 118 -26 76z"/>
<path d="M600 2473 c3 -64 31 -188 49 -217 23 -37 108 -113 116 -104 3 2 -11
17 -30 32 -35 29 -111 134 -102 142 3 3 18 -3 33 -13 28 -18 28 -18 20 2 -5
11 -14 38 -21 60 -15 47 -47 105 -57 105 -5 0 -8 -3 -8 -7z"/>
<path d="M2540 2467 c0 -7 -14 -33 -32 -56 -25 -34 -27 -41 -12 -33 12 6 25
17 31 24 12 15 27 78 19 78 -3 0 -6 -6 -6 -13z"/>
<path d="M1330 2441 c-79 -18 -194 -73 -251 -120 -56 -47 -29 -42 49 9 224
145 501 139 720 -16 75 -54 84 -41 10 15 -157 117 -335 155 -528 112z"/>
<path d="M440 2429 c0 -17 8 -28 38 -53 30 -26 28 -16 -8 29 -16 21 -30 32
-30 24z"/>
<path d="M2472 2339 c-29 -28 -57 -60 -63 -71 -10 -18 -8 -19 12 -13 33 11 95
76 103 108 3 15 5 27 3 27 -2 0 -27 -23 -55 -51z"/>
<path d="M686 2268 c27 -33 62 -68 68 -68 13 0 -60 89 -73 89 -11 1 -9 -5 5
-21z"/>
<path d="M267 2181 c-2 -10 4 -29 14 -42 10 -13 19 -29 19 -34 0 -6 18 -30 39
-54 38 -42 41 -43 78 -34 l38 9 -32 17 c-18 9 -41 17 -53 17 -11 0 -19 4 -18
9 2 4 -8 18 -22 29 -19 16 -22 23 -13 32 8 9 28 3 82 -25 40 -21 74 -35 78
-31 3 3 1 6 -6 6 -6 0 -30 12 -54 27 -23 16 -60 35 -82 44 -22 8 -39 20 -38
26 4 19 -25 23 -30 4z"/>
<path d="M340 2108 c30 -25 149 -83 156 -75 3 3 -16 13 -41 23 -26 9 -64 30
-86 46 -45 33 -66 37 -29 6z"/>
<path d="M437 2013 c-26 -4 -52 -34 -40 -47 10 -9 35 -7 29 3 -3 5 8 14 24 21
26 11 43 33 23 29 -5 -1 -20 -4 -36 -6z"/>
<path d="M1647 1988 c12 -13 30 -38 41 -56 l19 -33 5 26 c4 20 -2 31 -32 55
-45 35 -62 39 -33 8z"/>
<path d="M452 1981 c-9 -6 0 -12 32 -20 66 -16 76 -14 33 9 -41 22 -46 23 -65
11z"/>
<path d="M2635 1922 c-16 -9 -55 -27 -85 -39 -30 -12 -47 -22 -37 -22 30 -2
18 -21 -14 -21 -20 0 -28 -4 -23 -12 4 -6 3 -8 -4 -5 -5 4 -21 2 -34 -3 -17
-8 -5 -9 47 -4 74 6 88 12 149 68 44 40 45 62 1 38z"/>
<path d="M2700 1809 c-14 -6 -46 -8 -72 -4 -39 5 -48 3 -48 -9 0 -9 -10 -18
-22 -21 -63 -15 -123 -22 -154 -19 -20 2 -34 -2 -34 -8 0 -8 28 -8 98 -3 53 5
122 10 152 10 76 2 77 2 100 25 35 35 26 47 -20 29z"/>
<path d="M242 1791 c2 -8 24 -22 49 -31 30 -10 44 -20 41 -29 -3 -8 1 -12 9
-9 8 3 26 -3 40 -13 35 -25 93 -36 158 -32 53 3 69 8 59 18 -6 7 -45 16 -73
19 -11 0 -24 4 -30 8 -5 3 -30 5 -55 3 -24 -2 -38 0 -31 4 8 5 -4 12 -34 20
-76 19 -45 23 50 6 48 -8 106 -14 129 -14 32 1 23 4 -39 14 -44 8 -86 14 -93
14 -7 1 -11 5 -8 10 3 5 16 7 29 5 20 -4 20 -4 2 4 -11 5 -62 11 -113 14 -78
4 -92 2 -90 -11z"/>
<path d="M2579 1743 c-1 -5 -1 -10 -1 -13 0 -3 -23 -5 -51 -6 -70 -1 -107 -7
-107 -16 0 -4 -11 -3 -25 2 -27 10 -42 -2 -22 -18 32 -25 178 -17 224 13 12 8
30 15 40 15 10 0 13 3 8 9 -14 12 -65 23 -66 14z"/>
<path d="M432 1605 c-39 -26 -72 -51 -72 -55 0 -12 124 -23 180 -16 64 8 140
43 140 63 0 10 -5 13 -17 8 -10 -4 -25 -8 -33 -10 -8 -2 -16 -4 -17 -5 -2 -2
-12 -4 -23 -5 -11 -1 -22 -4 -25 -5 -14 -7 -67 -18 -110 -24 l-40 -5 35 19
c19 10 72 29 118 41 45 12 82 26 82 32 0 5 -8 7 -17 4 -10 -3 -33 -10 -50 -15
-24 -8 -32 -7 -30 1 5 29 -51 16 -121 -28z"/>
<path d="M2330 1640 c0 -5 15 -12 33 -15 51 -12 143 -42 174 -59 28 -14 27
-14 -21 -10 -27 3 -54 8 -60 12 -6 4 -20 7 -31 7 -11 0 -26 4 -32 8 -7 5 -13
5 -13 1 0 -3 -7 -1 -15 6 -8 7 -15 10 -15 6 0 -3 -11 -1 -25 4 -44 17 -17 -18
34 -44 37 -18 65 -23 131 -25 47 -1 96 2 108 6 23 9 22 9 -15 39 -74 58 -111
77 -141 68 -37 -11 -52 -11 -84 -3 -16 4 -28 4 -28 -1z"/>
<path d="M596 1522 c-11 -2 -42 -19 -69 -38 -27 -19 -57 -34 -68 -34 -31 0
-30 -18 2 -25 17 -4 40 -16 50 -26 23 -23 44 -24 106 -3 46 16 133 78 133 95
0 14 -24 10 -50 -8 -14 -10 -32 -19 -41 -20 -10 -1 -39 -14 -65 -28 -55 -29
-61 -31 -44 -10 11 13 8 14 -21 10 -32 -5 -31 -4 11 15 79 35 126 61 103 56
-12 -2 -23 1 -25 8 -2 6 -12 10 -22 8z"/>
<path d="M2375 1504 c29 -14 29 -15 3 -9 -14 2 -34 7 -45 10 -21 7 41 -26 107
-55 42 -19 43 -20 11 -15 -29 4 -32 3 -21 -10 17 -21 10 -19 -52 12 -29 15
-55 26 -58 25 -3 0 -24 10 -47 24 -25 14 -44 20 -48 14 -3 -5 -2 -10 2 -10 5
0 30 -21 58 -47 46 -45 52 -48 112 -51 48 -3 68 -1 81 11 9 9 29 19 44 22 32
8 28 25 -6 25 -13 0 -41 13 -62 28 -21 16 -55 31 -74 35 l-35 6 30 -15z"/>
<path d="M1918 1439 c6 -7 12 -23 12 -35 0 -30 16 -39 23 -14 3 13 14 20 29
20 47 0 52 18 7 22 -24 3 -53 8 -64 13 -16 6 -18 6 -7 -6z"/>
<path d="M1818 1373 c-3 -55 -4 -58 -28 -55 -20 2 -22 0 -12 -10 18 -18 44 1
57 39 10 30 10 30 43 15 23 -11 35 -13 43 -5 7 7 0 12 -25 17 -20 4 -44 18
-55 32 l-20 25 -3 -58z"/>
<path d="M797 1394 c-10 -13 -22 -22 -28 -19 -5 4 -9 1 -9 -5 0 -6 -5 -8 -10
-5 -6 3 -13 -1 -16 -9 -3 -9 -10 -14 -14 -11 -5 3 -13 -3 -19 -12 -7 -11 -11
-13 -11 -5 0 9 -8 7 -27 -7 -41 -33 -42 -14 0 25 20 19 37 36 37 38 0 11 -39
-1 -58 -18 -23 -20 -52 -67 -52 -82 0 -10 88 3 145 21 36 12 56 26 73 51 12
19 18 34 12 34 -5 0 -7 7 -4 15 9 22 2 18 -19 -11z"/>
<path d="M2158 1402 c-10 -36 37 -80 109 -102 82 -25 113 -26 113 -2 0 23 -37
82 -52 83 -7 0 -23 2 -35 3 -25 3 -21 -9 9 -25 16 -9 19 -8 13 2 -6 8 -4 10 4
5 7 -5 10 -11 7 -14 -4 -3 1 -16 10 -30 18 -28 5 -23 -33 11 -14 12 -23 15
-23 8 0 -7 -9 -3 -22 8 -11 11 -24 18 -28 16 -5 -3 -11 2 -14 11 -3 8 -10 13
-15 9 -5 -3 -16 4 -24 15 -14 20 -15 20 -19 2z"/>
<path d="M2105 1341 c11 -13 42 -45 70 -72 27 -26 46 -51 42 -56 -5 -4 -20 6
-35 22 -14 17 -23 22 -19 13 10 -27 -8 -21 -23 7 -7 14 -15 23 -18 21 -2 -3
-14 4 -26 16 -23 22 -77 58 -88 58 -17 0 -38 -34 -38 -62 l0 -31 -23 21 c-13
12 -28 22 -35 22 -15 0 -32 -33 -32 -64 0 -31 -3 -31 -36 -10 -23 16 -26 15
-44 -1 -17 -15 -24 -16 -46 -6 -22 9 -29 8 -51 -9 -16 -13 -29 -17 -33 -10
-10 16 -64 21 -81 8 -20 -17 -39 -52 -39 -74 0 -11 8 -5 23 17 30 45 63 49 93
12 20 -24 36 -78 18 -60 -4 4 -15 -3 -25 -15 -14 -16 -22 -18 -32 -9 -8 6 -16
8 -19 5 -3 -3 -9 7 -12 23 -6 21 -9 24 -16 12 -5 -7 -15 -14 -21 -14 -6 0 -19
-11 -28 -25 l-16 -24 25 17 c28 19 40 22 40 7 0 -6 -11 -16 -25 -22 -14 -6
-25 -19 -25 -30 0 -24 8 -23 37 8 16 18 29 24 41 19 9 -4 24 -7 34 -7 32 1 29
-83 -6 -127 -9 -12 -7 -12 12 -2 13 7 27 23 32 37 5 13 12 24 14 24 3 0 31
-11 62 -25 31 -14 65 -25 76 -25 12 0 16 -4 12 -12 -5 -8 4 -9 34 -4 26 4 42
2 42 -4 0 -5 -4 -10 -10 -10 -5 0 -10 -5 -10 -11 0 -6 9 -9 21 -7 21 3 87 104
75 115 -3 3 -19 -6 -36 -21 -47 -39 -105 -36 -185 9 l-63 35 5 87 c6 114 5
112 34 67 25 -37 73 -73 84 -62 3 3 -2 22 -10 42 -26 61 -14 73 22 23 30 -44
112 -102 133 -95 6 2 -3 21 -19 43 -16 22 -34 60 -41 85 -6 25 -13 53 -16 63
-11 35 12 15 29 -26 22 -55 73 -104 123 -122 58 -20 63 -3 13 53 -43 48 -86
146 -69 157 5 3 12 -4 15 -16 10 -32 64 -88 104 -108 39 -20 125 -36 141 -26
16 10 -41 100 -78 124 -19 13 -31 18 -27 12 12 -20 -9 -11 -39 17 -25 22 -27
22 -11 3z"/>
<path d="M935 1333 c-16 -9 -34 -22 -38 -30 -5 -7 -12 -11 -18 -8 -5 4 -9 -2
-9 -12 0 -14 -2 -15 -9 -4 -7 11 -10 9 -15 -7 -4 -11 -14 -26 -23 -34 -15 -11
-16 -11 -10 6 6 15 2 13 -19 -7 -15 -15 -31 -27 -35 -27 -21 0 -5 22 54 75 34
32 46 46 27 33 -19 -14 -39 -24 -45 -22 -5 2 -15 0 -21 -4 -14 -9 -64 -84 -64
-96 0 -15 115 -1 156 20 21 11 55 42 74 67 19 26 36 43 38 37 7 -19 -47 -120
-83 -157 -42 -43 -35 -57 20 -40 49 15 120 84 130 126 8 38 25 51 25 18 0 -36
-20 -87 -53 -135 -32 -48 -30 -61 9 -43 46 21 92 61 109 96 9 19 20 35 25 35
13 0 13 -1 -6 -56 -8 -25 -13 -49 -10 -52 10 -9 59 31 81 66 11 17 22 31 25
32 3 0 5 -44 5 -97 l0 -97 -55 -33 c-39 -23 -67 -33 -97 -33 -48 0 -95 18 -86
33 3 6 1 7 -5 3 -7 -4 -12 -2 -12 5 0 7 -3 9 -7 6 -3 -4 3 -17 14 -30 15 -16
19 -31 16 -54 -5 -31 -8 -33 -44 -33 -22 0 -55 7 -75 15 -31 13 -36 13 -41 0
-15 -40 67 -105 134 -105 57 0 77 8 62 26 -6 8 -19 14 -28 15 -9 0 4 6 29 13
32 8 49 9 59 2 11 -8 13 -8 7 2 -4 7 -2 12 6 12 14 1 45 25 68 55 13 16 11 16
-15 -3 -41 -30 -137 -62 -182 -61 l-38 1 35 13 c19 7 46 14 59 14 24 1 24 1 5
22 l-19 22 49 -7 c33 -5 46 -4 41 3 -3 7 2 11 14 11 11 0 46 12 77 27 61 29
74 24 67 -25 -3 -18 -2 -23 5 -14 5 8 16 10 27 6 18 -7 18 -6 2 16 -9 14 -17
43 -17 66 0 38 2 42 26 42 21 0 29 -9 45 -45 16 -37 21 -42 33 -31 12 11 10
18 -17 45 -38 40 -28 57 12 19 27 -25 29 -26 33 -8 4 14 -1 23 -18 31 -13 6
-24 15 -24 21 0 14 7 13 35 -6 28 -19 34 -5 8 18 -24 20 -82 42 -90 34 -4 -3
2 -12 12 -20 18 -13 18 -14 -5 -26 -18 -10 -25 -10 -28 -1 -2 6 -8 9 -13 5 -5
-3 -9 2 -9 10 0 10 -6 13 -15 10 -19 -8 -11 18 19 59 24 33 65 37 73 7 3 -11
12 -20 19 -20 17 0 17 5 3 31 -15 29 -52 40 -88 26 -25 -9 -33 -8 -51 8 -17
15 -24 16 -46 6 -22 -10 -30 -9 -45 5 -16 14 -24 15 -45 6 -33 -16 -34 -15
-34 9 0 53 -36 74 -72 42 -17 -15 -18 -15 -18 3 0 21 -26 64 -38 64 -4 -1 -20
-8 -37 -17z"/>
<path d="M1581 1024 c-22 -28 -28 -54 -12 -54 10 0 45 69 38 76 -3 3 -14 -7
-26 -22z"/>
<path d="M1340 981 c0 -18 19 -51 30 -51 17 0 11 26 -10 45 -13 11 -20 14 -20
6z"/>
<path d="M1605 964 c-18 -28 -13 -43 9 -25 16 13 28 51 16 51 -4 0 -15 -12
-25 -26z"/>
<path d="M1233 907 c-24 -31 -166 -157 -176 -157 -5 0 -1 7 7 16 9 8 21 25 27
37 l10 22 -18 -22 c-25 -30 -127 -75 -183 -81 -41 -4 -49 -1 -79 29 l-33 34 7
-40 c13 -72 96 -134 181 -135 58 0 134 25 182 60 47 34 56 24 15 -15 -68 -64
-113 -88 -170 -88 l-54 0 48 -28 c100 -60 167 -28 248 116 28 50 28 50 3 27
l-25 -22 -11 25 c-17 36 -15 50 8 66 10 8 22 28 26 44 4 17 4 28 2 25 -3 -3
-25 -27 -48 -55 -24 -27 -47 -50 -52 -50 -5 0 -12 -6 -17 -13 -4 -7 -14 -14
-22 -15 -8 -2 -20 -6 -27 -10 -38 -24 -224 -13 -196 12 11 10 126 42 131 37 2
-2 -3 -11 -12 -20 -27 -26 -7 -18 53 21 70 47 162 132 185 172 21 37 16 41
-10 8z"/>
<path d="M1719 912 c19 -35 147 -154 202 -188 97 -58 89 -32 -9 33 -32 20 -88
68 -126 105 -71 71 -83 80 -67 50z"/>
<path d="M1760 920 c0 -14 69 -63 91 -66 13 -1 38 -8 54 -15 l30 -12 -35 -6
c-23 -4 -31 -9 -22 -14 6 -5 12 -6 12 -2 0 3 13 -1 28 -9 28 -15 101 -8 140
13 50 26 70 90 27 83 -11 -2 -47 -7 -80 -11 -58 -7 -59 -14 -5 -25 14 -3 -4
-3 -39 -1 -48 2 -82 12 -133 37 -37 19 -68 31 -68 28z"/>
<path d="M1720 820 c0 -23 30 -81 39 -75 6 3 15 -3 20 -14 8 -15 7 -23 -4 -35
-8 -8 -15 -20 -15 -27 0 -7 -11 -2 -25 11 -31 30 -31 24 1 -38 39 -76 93 -123
146 -129 45 -5 92 11 115 39 9 10 3 13 -33 14 -46 1 -92 25 -154 83 -44 40
-31 51 19 16 84 -57 173 -70 251 -34 61 27 88 55 101 102 9 36 2 69 -8 39 -10
-27 -48 -52 -78 -52 -38 0 -132 31 -169 55 -37 24 -42 13 -7 -13 33 -24 127
-62 154 -62 24 0 21 -17 -4 -31 -25 -13 -104 -5 -125 12 -11 9 -14 8 -14 -2
-1 -9 -9 -4 -22 11 -12 14 -19 18 -16 9 9 -24 -39 -12 -57 14 -8 12 -15 18
-15 13 0 -9 -25 16 -72 73 -16 18 -28 28 -28 21z"/>
<path d="M1581 769 c-1 -20 8 -62 19 -94 11 -32 18 -60 16 -63 -11 -10 -26 11
-41 58 -9 28 -19 50 -21 50 -2 0 -1 -26 2 -57 5 -44 17 -73 49 -123 73 -112
130 -150 222 -150 68 0 85 13 45 34 -41 21 -98 93 -142 179 -18 36 -36 65 -38
63 -2 -2 5 -21 16 -43 11 -21 23 -49 26 -63 13 -45 -32 29 -50 83 -18 53 -64
140 -71 134 -2 -3 10 -40 26 -84 30 -78 59 -127 122 -210 18 -24 29 -46 26
-50 -10 -9 -46 27 -68 67 -17 33 -18 33 -19 10 -1 -17 -7 -8 -20 30 -14 43
-18 49 -19 28 -2 -50 -21 -29 -21 22 0 28 -7 64 -15 80 -8 16 -22 53 -29 82
-14 50 -15 51 -15 17z"/>
<path d="M1332 733 c-11 -27 -33 -76 -48 -110 -31 -73 -54 -99 -54 -62 0 19
-7 12 -30 -30 -36 -66 -56 -88 -93 -107 -39 -21 -25 -34 37 -34 93 0 179 59
230 158 9 17 18 32 20 32 2 0 4 -44 5 -97 0 -87 3 -103 30 -158 53 -107 53
-107 94 -44 20 30 41 73 47 97 12 47 6 157 -9 176 -6 7 -16 48 -22 92 -7 43
-14 73 -17 66 -2 -7 2 -45 9 -85 13 -76 14 -94 6 -167 -8 -81 -19 -118 -37
-135 -17 -16 -19 -15 -33 12 -8 15 -18 53 -21 83 -4 30 -14 79 -23 109 -13 42
-14 65 -7 112 6 33 8 59 6 59 -2 0 -12 -20 -23 -45 -35 -80 -54 -61 -24 25 8
23 15 57 14 74 -1 31 -1 31 -10 -7 -5 -20 -18 -55 -29 -77 -13 -25 -18 -49
-14 -68 4 -18 0 -41 -9 -58 l-16 -29 6 38 c8 53 -2 46 -23 -15 -14 -42 -19
-49 -24 -33 -7 20 -7 20 -14 -1 -12 -38 -66 -83 -66 -55 0 5 21 35 46 67 48
61 106 175 118 232 10 45 3 40 -22 -15z"/>
<path d="M1263 640 c-28 -65 -21 -64 12 0 14 28 22 50 18 50 -5 0 -18 -23 -30
-50z"/>
<path d="M1470 588 c0 -83 2 -97 13 -86 22 21 28 83 11 107 -14 19 -13 21 1
21 23 0 16 52 -7 56 -16 2 -18 -8 -18 -98z"/>
</g>
</svg>
